Prosperous professional couple Mike and Christine are settling in for a standard evening of wine, TV and low-level marital hostility when a ring on their doorbell changes everything. Turns out their son Sebastian is in a little trouble with some local boys, who are quite prepared to camp out and wait for him to get home... The resulting culture-clash chamber drama is raw, revealing and nerve-splittingly tense.
 
http://www.imdb.com/title/tt1468829/

Subtitles (srt) : Dutch, English.

Covers included.

Christine en Mike zijn doodnormale ouders die samen een tienerzoon, genaamd Sebastian, hebben. Het is vroeg in de avond en ze moeten nog eten. Dan wordt er op de deur geklopt, en verandert de avond in een ware nachtmerrie; ze worden gegijzeld door een groep tieners, tot Sebastian thuiskomt. De tieners willen wraak nemen voor iets dat Sebastian een familielid van hen geflikt heeft.
  
http://www.moviemeter.nl/film/63997

Ondertitels (srt) : Engels, Nederlands.

Hoesjes bijgevoegd.

General
Complete name                    : Cherry Tree Lane-AC3-XviD-DVDRip[Eng]2010 2Lions-Team\Cherry Tree Lane-AC3-XviD-DVDRip[Eng]2010 2Lions-Team.avi
Format                           : AVI
Format/Info                      : Audio Video Interleave
File size                        : 1.03 GiB
Duration                         : 1h 14mn
Overall bit rate                 : 1 990 Kbps
Writing application              : VirtualDubMod 1.5.4.1 (build 2178/release)
Writing library                  : VirtualDubMod build 2178/release

Video
ID                               : 0
Format                           : MPEG-4 Visual
Format profile                   : Simple@L3
Format settings, BVOP            : No
Format settings, QPel            : No
Format settings, GMC             : No warppoints
Format settings, Matrix          : Default (H.263)
Codec ID                         : XVID
Codec ID/Hint                    : XviD
Duration                         : 1h 14mn
Bit rate                         : 1 532 Kbps
Width                            : 720 pixels
Height                           : 400 pixels
Display aspect ratio             : 16:9
Frame rate                       : 25.000 fps
Color space                      : YUV
Chroma subsampling               : 4:2:0
Bit depth                        : 8 bits
Scan type                        : Progressive
Bits/(Pixel*Frame)               : 0.213
Stream size                      : 814 MiB (77%)
Writing library                  : XviD 1.1.2 (UTC 2006-11-01)

Audio
ID                               : 1
Format                           : AC-3
Format/Info                      : Audio Coding 3
Mode extension                   : CM (complete main)
Codec ID                         : 2000
Duration                         : 1h 14mn
Bit rate mode                    : Constant
Bit rate                         : 448 Kbps
Channel(s)                       : 6 channels
Channel positions                : Front: L C R, Side: L R, LFE
Sampling rate                    : 48.0 KHz
Bit depth                        : 16 bits
Stream size                      : 238 MiB (23%)
Alignment                        : Split accross interleaves
Interleave, duration             : 40 ms (1.00 video frame)
Interleave, preload duration     : 500 ms

Thanks to BoH_BoH_MaN ,and  Gollums-Team for the Dutch subs.Nice job peeps!

Brought to you by 
2Lions Team

meer zien??
Kom dan eens kijken op ons forum 
                   
2lions-site.nl

2Lions the site to be for all your Dutch MOVIES and more

******************************************

DON T HIT AND RUN Niet gelijk afhaken als de FILM binnen is blijf seeden. 

Don`t quit after you finished the download, but keep seeding

There are fake torrents from uploaders who use our team name.
Those are not ours, or members from our team.
We 2Lions-Team are not responsible for the fake posts on our name

Wij 2Lions-Team zijn niet verantwoordelijk voor die zieke FAKE posten die op onze naam worden gedaan

Please check our site !!!

to the fakers , get a life !!!